<mxfile host="65bd71144e">
    <diagram id="Ty-3vBvF42Z284snkenA" name="Page-1">
        <mxGraphModel dx="832" dy="563" grid="1" gridSize="10" guides="1" tooltips="1" connect="1" arrows="1" fold="1" page="1" pageScale="1" pageWidth="850" pageHeight="1100" math="0" shadow="0">
            <root>
                <mxCell id="0"/>
                <mxCell id="1" parent="0"/>
                <mxCell id="2" value="Círculo" style="swimlane;whiteSpace=wrap;html=1;" vertex="1" parent="1">
                    <mxGeometry x="10" y="160" width="140" height="120" as="geometry"/>
                </mxCell>
                <mxCell id="3" value="Color: 1 Texto&lt;br/&gt;Diámetro: 1 Número" style="text;html=1;align=center;verticalAlign=middle;resizable=0;points=[];autosize=1;strokeColor=none;fillColor=none;" vertex="1" parent="2">
                    <mxGeometry x="10" y="50" width="130" height="40" as="geometry"/>
                </mxCell>
                <mxCell id="4" value="Rectángulo" style="swimlane;whiteSpace=wrap;html=1;startSize=23;" vertex="1" parent="1">
                    <mxGeometry x="210" y="160" width="140" height="120" as="geometry"/>
                </mxCell>
                <mxCell id="5" value="Longitud: 1 Número&lt;br/&gt;Anchura: 1 Número&lt;br/&gt;Color: 1 Texto&lt;br&gt;&amp;nbsp;" style="text;html=1;align=center;verticalAlign=middle;resizable=0;points=[];autosize=1;strokeColor=none;fillColor=none;" vertex="1" parent="4">
                    <mxGeometry x="10" y="35" width="130" height="70" as="geometry"/>
                </mxCell>
                <mxCell id="6" value="Cuadrado" style="swimlane;whiteSpace=wrap;html=1;" vertex="1" parent="1">
                    <mxGeometry x="420" y="160" width="140" height="120" as="geometry"/>
                </mxCell>
                <mxCell id="7" value="Longitud: 1 Número&lt;br/&gt;Color: 1 Texto&lt;br&gt;&amp;nbsp;" style="text;html=1;align=center;verticalAlign=middle;resizable=0;points=[];autosize=1;strokeColor=none;fillColor=none;" vertex="1" parent="6">
                    <mxGeometry x="10" y="40" width="130" height="60" as="geometry"/>
                </mxCell>
                <mxCell id="8" value="Elipse" style="swimlane;whiteSpace=wrap;html=1;" vertex="1" parent="1">
                    <mxGeometry x="620" y="160" width="145" height="120" as="geometry"/>
                </mxCell>
                <mxCell id="9" value="Color: 1 Texto&lt;br/&gt;Eje Mayor: 1 Número&lt;br/&gt;Eje Menor: 1 Número&lt;br&gt;&amp;nbsp;" style="text;html=1;align=center;verticalAlign=middle;resizable=0;points=[];autosize=1;strokeColor=none;fillColor=none;" vertex="1" parent="8">
                    <mxGeometry x="5" y="35" width="140" height="70" as="geometry"/>
                </mxCell>
            </root>
        </mxGraphModel>
    </diagram>
</mxfile>